<svg id="Layer_2" data-name="Layer 2" xmlns="http://www.w3.org/2000/svg" viewBox="0 0 508 410.14"><defs><style>.cls-1{fill:#fce9ae;}.cls-2{fill:none;stroke:#090a05;stroke-width:0.75px;}.cls-2,.cls-4{stroke-miterlimit:10;}.cls-3{font-size:33.26px;font-family:Love-Regular, Love;letter-spacing:0.1em;}.cls-4{stroke:#000;}</style></defs><path class="cls-1" d="M195.64,263.38c1.68-3-.2-30.59,6.7-49.44,8.53-23.28,28.55-39.47,41-49.43l0,0c2.18-1.56,5.2-3.38,6.55-2.39,3.6,2.62-8,22.46-4.51,24.91,1.89,1.33,6.58-3.52,18.9-7.19,3.72-1.1,4.85-1.12,5.52-.5,3.57,3.37-10.56,21.54-7.36,24.42,1.62,1.46,6.49-2.14,19.9-5.19,3.41-.77,4.64-.89,5.35-.16,3.53,3.61-11.8,22-8.86,24.75,1.69,1.62,7.84-3.51,21.07-5.85,5.18-.92,6.29-.5,6.86.16,3.52,4.13-12.3,19.9-8.87,24.09,2.24,2.72,12-.22,17.23-2.51,4.16-1.84,6.22-3.63,7.19-2.85,1.71,1.39-2,9.12-5.19,14.22-4.1,6.6-10,13.21-21.57,21.07-9.54,6.5-22,15-41.13,18.84a98.09,98.09,0,0,1-29.69,1.34,1.75,1.75,0,0,0-1.94,1.59L222,305.3c-1.23,18.21-2,20.3-2.59,23.54-.41,2.23-.9,7.64-10.5,24.28-18.36,31.8-29.25,38.28-36.06,40.8-4.2,1.56-6.5,1.48-7.59.38-3.82-3.86,8.06-19.46,4.93-22.2-1.77-1.56-6.22,2.93-16.32,4.93-4.35.87-11,2.18-12.71-.38-3.32-4.95,14.06-21,12-23.34-1.08-1.18-5.92,2.91-15.56,5.12-4.05.94-11.39,2.63-12.9.19C122,354.25,140,339.62,138,337c-1.19-1.54-7.77,3.08-19.73,4.18-5.31.48-9.8.89-11.2-1.33-3.24-5.16,13.17-19.58,10.82-22.4-1.36-1.62-7.19,2.75-18.6,4.18-5.76.72-11.12,1.39-12.33-.76-3.29-5.84,26.57-28.2,28.46-29.6,13.77-10.23,23.18-15.46,30.55-18.6,5.81-2.48,11-4.63,18.22-5.61a64.28,64.28,0,0,1,18-.82,56.45,56.45,0,0,0,11-.21,2,2,0,0,0,1.5-.7A4.49,4.49,0,0,0,195.64,263.38Z"/><path class="cls-2" d="M175.69,310.91c-4.5,1.42,26.25-7.61,29.89-13.25,4.09-6.35,3.91-11.29,7.82-19.71,4.44-9.57,13.73-13.24,17.32-14.94,10.8-5.14,26.07-3.6,24.8-3.74"/><path class="cls-2" d="M207.92,272.69c1.39-2.47-.17-25.2,5.52-40.73,7-19.18,23.52-32.52,33.81-40.72h0c1.8-1.29,4.28-2.79,5.4-2,3,2.16-6.62,18.51-3.72,20.53,1.56,1.09,5.42-2.91,15.56-5.92,3.07-.91,4-.93,4.55-.42,2.94,2.78-8.69,17.75-6.06,20.12,1.34,1.2,5.35-1.76,16.39-4.27,2.82-.64,3.83-.74,4.41-.14,2.91,3-9.72,18.08-7.3,20.39,1.4,1.33,6.46-2.9,17.36-4.82,4.26-.76,5.18-.41,5.65.13,2.9,3.4-10.13,16.39-7.31,19.84,1.85,2.24,9.91-.18,14.19-2.07,3.43-1.51,5.13-3,5.93-2.34,1.41,1.14-1.66,7.51-4.27,11.71-3.38,5.44-8.27,10.89-17.77,17.36-7.87,5.35-18.16,12.36-33.88,15.52a81,81,0,0,1-24.46,1.1,1.44,1.44,0,0,0-1.6,1.31c-.17,2.54-.4,5.94-.67,9.93-1,15-1.63,16.73-2.13,19.4-.35,1.83-.75,6.29-8.66,20-15.12,26.19-24.09,31.52-29.7,33.6-3.46,1.29-5.35,1.22-6.25.32-3.15-3.18,6.64-16,4.06-18.29-1.46-1.28-5.12,2.41-13.44,4.06-3.58.71-9.06,1.8-10.47-.31-2.74-4.08,11.58-17.34,9.84-19.23-.89-1-4.87,2.4-12.81,4.22-3.34.77-9.39,2.16-10.63.16-2.24-3.6,12.61-15.66,10.94-17.82-1-1.27-6.4,2.54-16.26,3.44-4.37.4-8.07.73-9.22-1.1-2.67-4.24,10.85-16.12,8.91-18.44-1.12-1.34-5.92,2.26-15.32,3.44-4.74.59-9.16,1.14-10.16-.63-2.71-4.81,21.89-23.22,23.45-24.38,11.34-8.43,19.09-12.73,25.16-15.32,4.79-2,9-3.81,15-4.62a53.15,53.15,0,0,1,14.78-.67,47,47,0,0,0,9.1-.18,1.63,1.63,0,0,0,1.24-.58A3.85,3.85,0,0,0,207.92,272.69Z"/><path class="cls-1" d="M313.71,254.61c1.68-3-.2-30.59,6.7-49.44,8.53-23.28,28.55-39.47,41-49.43l0,0c2.18-1.56,5.2-3.38,6.55-2.39,3.6,2.62-8,22.46-4.51,24.91,1.89,1.33,6.58-3.52,18.89-7.19,3.73-1.1,4.86-1.12,5.52-.5,3.58,3.37-10.55,21.54-7.36,24.42,1.63,1.46,6.5-2.14,19.91-5.19,3.41-.77,4.64-.89,5.35-.16,3.53,3.61-11.81,21.95-8.87,24.75,1.7,1.62,7.85-3.51,21.08-5.85,5.18-.92,6.29-.5,6.85.16,3.53,4.13-12.29,19.9-8.86,24.09,2.24,2.72,12-.22,17.23-2.51,4.15-1.84,6.22-3.63,7.19-2.85,1.71,1.39-2,9.12-5.19,14.22-4.1,6.6-10,13.21-21.57,21.07-9.54,6.5-22,15-41.13,18.84a98.09,98.09,0,0,1-29.69,1.34,1.75,1.75,0,0,0-1.94,1.59l-.82,12.06c-1.23,18.21-2,20.3-2.59,23.54-.42,2.23-.9,7.64-10.51,24.28-18.35,31.8-29.24,38.28-36.05,40.8-4.2,1.56-6.5,1.48-7.59.38-3.82-3.86,8.06-19.46,4.93-22.2-1.77-1.56-6.22,2.93-16.32,4.93-4.35.87-11,2.18-12.71-.38-3.32-4.95,14.06-21.05,12-23.34-1.08-1.18-5.92,2.91-15.56,5.12-4,.94-11.39,2.63-12.9.19-2.71-4.37,15.31-19,13.28-21.63-1.19-1.54-7.77,3.08-19.73,4.18-5.32.48-9.8.89-11.2-1.33-3.24-5.16,13.17-19.58,10.82-22.39-1.36-1.63-7.2,2.74-18.6,4.17-5.76.72-11.13,1.39-12.34-.76-3.29-5.84,26.58-28.2,28.47-29.6,13.77-10.23,23.18-15.46,30.55-18.6,5.81-2.48,11-4.63,18.22-5.61a64.72,64.72,0,0,1,17.95-.82,56.45,56.45,0,0,0,11-.21,2,2,0,0,0,1.5-.7A4.49,4.49,0,0,0,313.71,254.61Z"/><path class="cls-2" d="M293.75,302.14c-4.49,1.42,26.26-7.61,29.9-13.25,4.09-6.35,3.91-11.29,7.81-19.71,4.45-9.57,13.74-13.24,17.33-14.94,10.8-5.14,26.07-3.6,24.8-3.74"/><path class="cls-2" d="M326,263.92c1.38-2.47-.17-25.2,5.52-40.73,7-19.18,23.51-32.52,33.81-40.72h0c1.8-1.29,4.28-2.79,5.4-2,3,2.16-6.62,18.51-3.72,20.53,1.56,1.09,5.42-2.91,15.56-5.92,3.07-.91,4-.93,4.55-.42,2.94,2.78-8.69,17.75-6.06,20.12,1.34,1.2,5.35-1.76,16.39-4.27,2.81-.64,3.82-.74,4.41-.14,2.91,3-9.72,18.08-7.3,20.39,1.4,1.33,6.46-2.9,17.36-4.82,4.26-.76,5.18-.41,5.64.13,2.91,3.4-10.12,16.4-7.3,19.84,1.84,2.24,9.91-.18,14.19-2.07,3.43-1.51,5.13-3,5.93-2.34,1.4,1.14-1.66,7.51-4.27,11.71-3.39,5.44-8.27,10.89-17.78,17.36-7.86,5.35-18.15,12.36-33.88,15.52A80.92,80.92,0,0,1,350,287.2a1.44,1.44,0,0,0-1.6,1.31c-.17,2.54-.41,5.94-.68,9.93-1,15-1.63,16.73-2.13,19.4-.34,1.83-.74,6.29-8.65,20-15.12,26.19-24.09,31.52-29.7,33.6-3.46,1.29-5.36,1.22-6.25.32-3.15-3.18,6.64-16,4.06-18.29-1.46-1.28-5.13,2.41-13.44,4.06-3.59.71-9.06,1.8-10.48-.31-2.73-4.08,11.59-17.34,9.85-19.23-.89-1-4.88,2.4-12.82,4.22-3.33.77-9.38,2.16-10.62.16-2.24-3.6,12.6-15.66,10.94-17.82-1-1.27-6.4,2.54-16.26,3.44-4.38.4-8.07.73-9.22-1.1-2.67-4.24,10.84-16.12,8.91-18.44-1.12-1.34-5.93,2.26-15.32,3.44-4.74.59-9.16,1.14-10.16-.63-2.71-4.81,21.89-23.22,23.45-24.38,11.34-8.43,19.09-12.73,25.16-15.32,4.79-2,9-3.81,15-4.62a53.15,53.15,0,0,1,14.78-.67,47,47,0,0,0,9.1-.18,1.63,1.63,0,0,0,1.24-.58A3.85,3.85,0,0,0,326,263.92Z"/><path d="M41.4,65.33l.2,0a37.38,37.38,0,0,1,4.75.44A15,15,0,0,1,50.47,67a9.16,9.16,0,0,1,3.15,2.48,10.44,10.44,0,0,1,2,4.1,11.19,11.19,0,0,1,0,6.81,11.4,11.4,0,0,1-3.4,4.78,20,20,0,0,1-5.43,3.22,57.39,57.39,0,0,1-6.18,2.14Q31.7,93,22.92,95.7l-.3-1L25.16,94,12.41,52l-2.68.82L9.4,51.77q7.37-2.27,14.75-4.39c1.33-.39,2.79-.78,4.37-1.18a42.82,42.82,0,0,1,4.8-.93A26.65,26.65,0,0,1,38.09,45a13.23,13.23,0,0,1,4.27.85,9.4,9.4,0,0,1,3.41,2.33,9.54,9.54,0,0,1,2.17,4.22,9.11,9.11,0,0,1-.74,7.07,13.42,13.42,0,0,1-5.7,5.11l-.27.07Zm-7.92,1.31a13.6,13.6,0,0,0,2.81-1.79,10.24,10.24,0,0,0,2.23-2.59A9.41,9.41,0,0,0,39.74,59,9.1,9.1,0,0,0,39.47,55,8.25,8.25,0,0,0,37.83,52,12.07,12.07,0,0,0,35,49.47a13.52,13.52,0,0,0-3.45-1.6,9.22,9.22,0,0,0-3.5-.43l-.07,0c-.51.14-1.07.31-1.69.51s-1.24.39-1.88.58l-3.38,1q2.79,9.54,5.59,19.08Zm4.61,23.51a14.91,14.91,0,0,0,4.45-2A10.88,10.88,0,0,0,45.61,85a10,10,0,0,0,1.5-4,11.44,11.44,0,0,0-.34-4.7,13.23,13.23,0,0,0-2.19-4.64,11.33,11.33,0,0,0-3.25-2.94,10.15,10.15,0,0,0-3.81-1.33,11.51,11.51,0,0,0-3.85.11c-2.27.64-4.53,1.3-6.79,2q3.21,11,6.44,22Z"/><path d="M90.8,76.78c5.79-1.24,9.25-2.46,10.37-3.78a8.07,8.07,0,0,0,2.24-4.44,18.88,18.88,0,0,0-.29-6.86l1.28-.25q1.27,6.63,2.56,13.26Q89.5,78.08,72.17,82.24l-.24-1,2.78-.66q-5-21.33-10.06-42.67l-2.93.7c-.08-.37-.17-.73-.26-1.1Q79.16,33.3,97,29.83l3.27,10.88-.77.15q-2.67-9.37-8.75-8.37c-3.61.6-6.66,1.18-9.12,1.71s-4.94,1.06-7.4,1.62l4.5,20.12,2.72-.61c1.82-.4,3.38-.79,4.7-1.19a8.62,8.62,0,0,0,3.19-1.62,4.85,4.85,0,0,0,1.56-2.77,11.76,11.76,0,0,0-.24-4.61L91.4,45l3.51,17.07-.75.15a12,12,0,0,0-1.43-4,4.93,4.93,0,0,0-2.11-2,5.63,5.63,0,0,0-2.76-.47,22.66,22.66,0,0,0-3.38.48L79,57.43l4.68,20.9Z"/><path d="M151.3,53.39q.91,6.88,1.84,13.78-15.48,2.07-30.89,4.74c-.06-.33-.11-.66-.17-1l3.13-.54q-3.66-21.62-7.31-43.22l-3.31.57c-.06-.38-.13-.75-.19-1.12q8.16-1.41,16.34-2.67c.06.38.12.75.17,1.12l-4,.63q3.42,21.65,6.85,43.29L139.9,68q1.93-.29,3.6-.6c1.1-.2,2.08-.41,2.91-.62,1.93-.5,3.18-2.3,3.76-5.42.17-1.46.28-2.85.33-4.18a21,21,0,0,0-.16-3.7Z"/><path d="M197.45,48.55q.53,6.93,1.06,13.86-15.54,1.19-31,3l-.12-1,3.15-.36q-2.42-21.78-4.85-43.57l-3.32.38-.13-1.12q8.2-.94,16.43-1.74c0,.38.07.75.11,1.13l-4,.39q2.2,21.81,4.39,43.62,3.09-.32,6.18-.6c1.3-.12,2.51-.25,3.62-.39s2.1-.3,2.94-.46c2-.39,3.3-2.12,4.06-5.2.25-1.45.44-2.83.56-4.15a22.16,22.16,0,0,0,.06-3.71Z"/><path d="M252.65,60.1q-7.65.07-15.28.29l0-1,3.1-.08c0-.14,0-.27,0-.4q-2.69-6.58-5.46-13.16v-.27c-5,.16-10.06.35-15.08.6v.26q-2.07,6.77-4.06,13.54l0,.39,3.5-.18c0,.33,0,.67,0,1q-3.74.18-7.46.41c0-.36,0-.71-.07-1.07l2.16,0,.34,0,0-.27q6.88-22.77,14.69-45.42l2.56-.09q9.76,22,18.6,44.28v.27l2.43,0C252.64,59.44,252.64,59.77,252.65,60.1ZM234.23,43.91Q230.66,35.2,227,26.53l-.7,0c-1,3-2,6-3,9s-1.88,6-2.7,9l0,.46q6.82-.31,13.65-.54Z"/><path d="M304.08,15.26a43.44,43.44,0,0,1,6.83.91,21.59,21.59,0,0,1,6.29,2.37,12.55,12.55,0,0,1,4.46,4.28A10.77,10.77,0,0,1,323,29.46a9.25,9.25,0,0,1-2.33,5.86,13.14,13.14,0,0,1-5,3.25,23.09,23.09,0,0,1-6.5,1.32,56.56,56.56,0,0,1-6.75,0l-5-.24,0,.4c-.07,1.6-.16,3.2-.25,4.82s-.18,3.22-.26,4.81-.21,3.27-.29,4.88-.14,3.27-.22,5l0,.33,3.17.15c0,.33,0,.66,0,1q-7.2-.34-14.39-.58l0-1,2.62.08q.76-21.87,1.51-43.74l-2.76-.09,0-1.2Q295.31,14.81,304.08,15.26Zm-3.3,23.67a16,16,0,0,0,5.83-.79,13.34,13.34,0,0,0,4.27-2.38,10.18,10.18,0,0,0,2.7-3.46,11.22,11.22,0,0,0,1.07-4.1,11.1,11.1,0,0,0-.51-4.1A9.69,9.69,0,0,0,312,20.43a12.62,12.62,0,0,0-3.88-2.76,16,16,0,0,0-5.66-1.37l-3.9-.18,0,.33c-.08,1.86-.18,3.71-.28,5.55s-.21,3.68-.29,5.54l-.51,11.23Z"/><path d="M364.62,66.91q-7.59-1-15.19-1.85c0-.33.07-.66.11-1l3.09.35,0-.4q-1.76-6.9-3.59-13.79l0-.26q-7.5-.82-15-1.51l0,.27q-3,6.41-5.91,12.84l0,.39,3.5.31-.09,1-7.45-.63c0-.35.05-.71.08-1.06l2.15.24.33,0,0-.27q10-21.58,20.86-42.94c.85.09,1.7.17,2.55.27q6.63,23.18,12.31,46.44l0,.26,2.41.32C364.71,66.25,364.67,66.58,364.62,66.91Zm-16-18.6q-2.33-9.12-4.8-18.23l-.7-.07q-2.12,4.2-4.2,8.45T335,46.94l-.05.47q6.81.62,13.61,1.36Z"/><path d="M411.23,60.4A13.05,13.05,0,0,1,409.14,66a13.26,13.26,0,0,1-4,3.83,14.56,14.56,0,0,1-5.4,1.94,19.91,19.91,0,0,1-6.43-.1,21.82,21.82,0,0,1-4.65-1.27,23.68,23.68,0,0,1-3.79-2,26.32,26.32,0,0,1-3.2-2.38c-1-.84-1.91-1.69-2.84-2.54l-.53-.08-.78,5.26-1.4-.2q1.25-8.36,2.5-16.71l1.16.17a22.12,22.12,0,0,0,.34,6.4,14.07,14.07,0,0,0,2.29,5.39,13.83,13.83,0,0,0,4.45,4,20.67,20.67,0,0,0,6.93,2.31,17.72,17.72,0,0,0,4.11.23,11,11,0,0,0,3.44-.78,7.37,7.37,0,0,0,2.51-1.68,4.92,4.92,0,0,0,1.25-2.55,4.78,4.78,0,0,0,0-2,3.83,3.83,0,0,0-.87-1.75,11.16,11.16,0,0,0-1.95-1.8c-.8-.59-1.7-1.18-2.72-1.79s-2.07-1.2-3.18-1.79l-1.58-1q-2.67-1.52-5.43-3.31a24.24,24.24,0,0,1-4.83-4,16.64,16.64,0,0,1-3.21-5.12,12.71,12.71,0,0,1-.58-6.6,12.77,12.77,0,0,1,6.05-9.29,15.83,15.83,0,0,1,5.47-2,20.73,20.73,0,0,1,6.46-.14,18.92,18.92,0,0,1,6.5,2.24A27.89,27.89,0,0,1,412,32.53l.56.1c.19-1,.37-2,.55-3l1.27.23q-1.12,6.06-2.24,12.1l-1.24-.23a29.13,29.13,0,0,0-.69-5.66,13.52,13.52,0,0,0-2-4.7,11.88,11.88,0,0,0-3.87-3.48,18.15,18.15,0,0,0-6.1-2,17.43,17.43,0,0,0-4.59-.17,12.26,12.26,0,0,0-3.95,1A8,8,0,0,0,386.75,29a7.48,7.48,0,0,0-1.52,3.43,6.87,6.87,0,0,0,1.06,2.92,11.56,11.56,0,0,0,2.27,2.54,24.4,24.4,0,0,0,3.2,2.25c1.18.71,2.45,1.42,3.8,2.13l1,.57q2.4,1.34,5.07,3.08a31.91,31.91,0,0,1,4.9,3.94,18.51,18.51,0,0,1,3.55,4.84A11.12,11.12,0,0,1,411.23,60.4Z"/><path d="M436.57,33.79c-3.12-.67-5.35-.74-6.66-.23a5.85,5.85,0,0,0-1.68,1.28,9.66,9.66,0,0,0-1.61,2.39,11.43,11.43,0,0,0-.93,2.29c-.24.84-.49,1.7-.77,2.59-.21.69-.42,1.37-.62,2l-.69-.14q1.54-6.71,3.11-13.42,19.27,3.85,38.41,8.6l-2.91,13.47-.75-.19a28.61,28.61,0,0,0,1-6.77,6.57,6.57,0,0,0-1.34-4.13,7.8,7.8,0,0,0-1.4-1.47,9.14,9.14,0,0,0-2-1.16A20.16,20.16,0,0,0,455,38q-1.67-.46-4-1l-.35-.09q-4.91,21.36-9.83,42.72l3,.71-.23,1Q436.37,79.59,429,78l.21-1,2.59.56q4.67-21.42,9.34-42.83Z"/><path d="M496.85,95.7q-7.38-2.28-14.8-4.4c.1-.32.19-.64.28-1l3,.87.11-.38q-.6-7.11-1.27-14.21l.07-.26q-7.32-2.08-14.68-4l-.06.26q-4,5.81-8,11.66l-.1.38,3.42.89-.25,1q-3.65-1-7.29-1.88c.08-.35.17-.69.26-1l2.09.6.33.08L460,84q13.51-19.61,27.86-38.82l2.49.69q2.73,24,4.51,47.89l-.08.26,2.35.71ZM484,74.64q-.81-9.39-1.75-18.79l-.68-.19q-2.79,3.8-5.57,7.62T470.72,71l-.12.45q6.66,1.77,13.29,3.64Z"/><text class="cls-3" transform="translate(154.46 124.88)">ANNO 2001</text><line class="cls-4" x1="369.68" y1="113.34" x2="394.54" y2="113.34"/><line class="cls-4" x1="118.16" y1="113.34" x2="143.02" y2="113.34"/></svg>
